<svg width="220" height="87" viewBox="0 0 220 87" fill="none" xmlns="http://www.w3.org/2000/svg">
<path d="M40.3021 52.808C42.7981 53.896 44.0461 55.368 44.0461 57.224C44.0461 58.376 43.4701 59.496 42.3181 60.584C41.1661 61.672 39.8541 62.44 38.3821 62.888C34.8621 63.272 32.3661 63.496 30.8941 63.56C22.3181 64.264 16.2701 64.936 12.7501 65.576C12.1741 65.96 10.9581 66.152 9.10213 66.152C7.31013 66.152 5.71013 65.32 4.30213 63.656C2.95813 61.992 2.28613 60.264 2.28613 58.472C2.28613 57.768 2.38213 57.096 2.57413 56.456L14.8621 7.88C15.5661 5.064 16.3021 3.20799 17.0701 2.31199C17.9021 1.352 19.3741 0.871996 21.4861 0.871996C23.2141 0.871996 24.6861 1.064 25.9021 1.44799C27.1821 1.832 27.8541 2.408 27.9181 3.17599C27.9181 4.96799 23.7901 22.376 15.5341 55.4C21.1661 54.44 28.3341 53.672 37.0381 53.096L40.3021 52.808ZM64.7739 67.016C59.1419 67.016 54.7579 65.096 51.6219 61.256C48.4859 57.416 46.9179 52.52 46.9179 46.568C46.9179 41.576 48.1019 36.872 50.4699 32.456C52.9019 28.04 56.1979 24.488 60.3579 21.8C64.5179 19.112 69.0939 17.768 74.0859 17.768C79.0139 17.768 83.0459 19.4 86.1819 22.664C89.3819 25.864 90.9819 30.6 90.9819 36.872C90.9819 41.288 89.7659 45.864 87.3339 50.6C84.9019 55.336 81.6379 59.272 77.5419 62.408C73.5099 65.48 69.2539 67.016 64.7739 67.016ZM66.2139 59.336C68.2619 59.336 70.3099 58.056 72.3579 55.496C74.4699 52.936 76.1979 49.704 77.5419 45.8C78.8859 41.896 79.5579 38.088 79.5579 34.376C79.5579 28.68 77.1899 25.832 72.4539 25.832C69.8299 25.832 67.4299 27.08 65.2539 29.576C63.0779 32.072 61.3499 35.176 60.0699 38.888C58.7899 42.536 58.1499 45.96 58.1499 49.16C58.1499 51.016 58.5659 52.744 59.3979 54.344C60.2299 55.88 61.2539 57.096 62.4699 57.992C63.7499 58.888 64.9979 59.336 66.2139 59.336ZM105.556 86.792C102.612 86.792 99.8279 86.152 97.2039 84.872C94.6439 83.592 92.4999 81.928 90.7719 79.88C88.9799 77.896 87.6999 75.88 86.9319 73.832C86.9959 72.68 87.5719 71.528 88.6599 70.376C89.6839 69.288 91.5079 68.744 94.1319 68.744C94.9639 68.744 95.6679 69.064 96.2439 69.704C96.8839 70.344 97.5879 71.368 98.3559 72.776C99.3799 74.696 100.436 76.168 101.524 77.192C102.676 78.28 104.244 78.824 106.228 78.824C108.468 78.824 110.612 77.928 112.66 76.136C114.772 74.408 116.564 72.04 118.036 69.032C119.572 66.024 120.628 62.696 121.204 59.048C119.796 60.968 118.164 62.44 116.308 63.464C114.516 64.488 112.82 65 111.22 65C106.1 65 102.036 63.88 99.0279 61.64C96.0839 59.336 94.6119 55.272 94.6119 49.448C94.6119 44.2 96.0519 39.304 98.9319 34.76C101.876 30.216 105.78 26.6 110.644 23.912C115.508 21.224 120.724 19.88 126.292 19.88C129.94 19.88 132.628 20.616 134.356 22.088C136.148 23.56 137.236 25.416 137.62 27.656C138.708 28.168 139.284 28.68 139.348 29.192C139.348 29.384 139.22 30.056 138.964 31.208C137.748 36.456 135.188 46.824 131.284 62.312L130.228 66.536C128.628 72.744 125.556 77.672 121.012 81.32C116.532 84.968 111.38 86.792 105.556 86.792ZM127.252 29.768C126.74 28.872 126.228 28.296 125.716 28.04C125.268 27.784 124.564 27.656 123.604 27.656C120.596 27.656 117.684 28.648 114.868 30.632C112.052 32.552 109.78 35.08 108.052 38.216C106.324 41.288 105.46 44.456 105.46 47.72C105.46 50.088 105.876 52.136 106.708 53.864C107.604 55.592 109.012 56.584 110.932 56.84C113.492 56.392 115.892 55.24 118.132 53.384C120.436 51.528 122.004 49.128 122.836 46.184L127.252 29.768ZM154.601 7.976C154.601 5.992 155.209 4.232 156.425 2.696C157.705 1.16 159.465 0.391996 161.705 0.391996C164.073 0.391996 166.121 1.128 167.849 2.6C169.641 4.072 170.537 5.736 170.537 7.592C170.537 9.448 169.641 11.048 167.849 12.392C166.057 13.736 163.977 14.408 161.609 14.408C159.305 14.408 157.545 13.832 156.329 12.68C155.177 11.464 154.601 9.896 154.601 7.976ZM145.481 58.568C145.481 57.416 148.329 45.896 154.025 24.008L153.449 20.456C153.449 19.752 153.865 19.208 154.697 18.824C155.529 18.44 157.129 18.248 159.497 18.248C161.353 18.248 162.697 18.76 163.529 19.784C164.425 20.808 164.873 22.024 164.873 23.432C164.873 23.816 164.809 24.328 164.681 24.968L156.137 59.528L156.713 63.08C156.713 63.784 156.297 64.328 155.465 64.712C154.633 65.096 153.033 65.288 150.665 65.288C148.553 65.288 147.177 64.68 146.537 63.464C145.897 62.184 145.545 60.552 145.481 58.568ZM180.076 18.44C183.212 16.84 185.708 16.04 187.564 16.04C189.74 16.04 190.956 17.16 191.212 19.4L188.044 31.208C189.388 29.352 191.372 27.528 193.996 25.736C196.62 23.944 199.244 22.472 201.868 21.32C204.556 20.168 206.7 19.592 208.3 19.592C211.692 19.592 214.156 20.232 215.692 21.512C217.228 22.728 217.996 24.68 217.996 27.368C217.356 30.952 216.396 35.272 215.116 40.328C213.836 45.32 213.036 48.488 212.716 49.832C211.308 55.08 210.316 59.016 209.74 61.64C209.356 63.24 208.972 64.36 208.588 65C208.268 65.576 207.66 65.992 206.764 66.248C205.932 66.504 204.46 66.632 202.348 66.632C201.196 66.632 200.108 66.44 199.084 66.056C198.124 65.672 197.644 65.032 197.644 64.136C197.836 62.024 198.476 58.792 199.564 54.44C200.716 50.024 202.252 44.328 204.172 37.352C205.452 33 206.092 30.632 206.092 30.248C206.092 29.352 205.58 28.904 204.556 28.904C203.084 28.904 200.876 29.928 197.932 31.976C194.988 33.96 191.948 37.32 188.812 42.056C185.676 46.728 183.212 52.84 181.42 60.392C181.292 60.776 181.132 61.48 180.94 62.504C180.748 63.528 180.236 64.264 179.404 64.712C178.572 65.096 177.228 65.288 175.372 65.288C173.26 65.288 171.692 65.064 170.668 64.616C169.708 64.168 169.228 63.208 169.228 61.736L170.284 57.608C174.06 42.824 177.324 29.768 180.076 18.44Z" fill="white"/>
<path d="M0.078125 74.6H219.916V79.4H0.078125V74.6Z" fill="white"/>
</svg>
